
<svg width="65" height="47" viewBox="0 0 65 47" fill="none" xmlns="http://www.w3.org/2000/svg">
<g clip-path="url(#clip0_190:320)">
<path fill-rule="evenodd" clip-rule="evenodd" d="M59.4854 21.4874L58.5663 22.3563C60.1675 22.9042 61.4934 24.0549 62.2636 25.565C62.8911 26.8927 63.1903 28.3524 63.1357 29.8206V30.2812C63.137 30.6406 63.0315 30.9923 62.8328 31.2915C62.9055 31.5293 62.9296 31.7793 62.9035 32.0267C62.8775 32.274 62.802 32.5136 62.6814 32.7309C62.026 33.9868 61.0305 35.0318 59.8092 35.746C58.4078 36.4215 56.8611 36.7381 55.3077 36.6672C53.914 36.7225 52.5266 36.4519 51.2553 35.8768C50.5191 35.5013 49.8642 34.9837 49.3283 34.3536V34.5735C49.327 35.0612 49.1327 35.5285 48.7881 35.8729C48.4435 36.2173 47.9768 36.4107 47.4901 36.4107H43.5265C43.2576 36.4116 42.9918 36.3529 42.748 36.2389C42.5043 36.1249 42.2887 35.9583 42.1166 35.7512C41.9437 35.9575 41.728 36.1235 41.4844 36.2374C41.2408 36.3513 40.9754 36.4105 40.7066 36.4107H36.7378C36.4713 36.4117 36.2079 36.354 35.9661 36.2419C35.7243 36.1297 35.51 35.9658 35.3382 35.7617C35.1652 35.9657 34.9499 36.1294 34.7073 36.2415C34.4647 36.3536 34.2006 36.4114 33.9335 36.4107H29.9699C29.4869 36.4052 29.0255 36.2094 28.6854 35.8656C28.3453 35.5218 28.1539 35.0576 28.1525 34.5735V33.2439C27.3752 34.411 26.3195 35.3652 25.0811 36.0196C23.8426 36.6741 22.4608 37.0083 21.0609 36.9918C16.502 36.9918 12.789 33.5266 12.789 29.2657C12.7922 27.8807 13.1869 26.525 13.9274 25.3556H12.7577V34.5735C12.7577 34.8152 12.7101 35.0545 12.6176 35.2778C12.5252 35.501 12.3897 35.7038 12.219 35.8745C12.0482 36.0451 11.8455 36.1804 11.6225 36.2724C11.3995 36.3644 11.1606 36.4114 10.9195 36.4107H6.66343C6.42116 36.4128 6.18087 36.3668 5.95638 36.2755C5.73189 36.1842 5.52762 36.0492 5.35534 35.8785C5.18305 35.7078 5.04615 35.5046 4.95248 35.2806C4.85882 35.0566 4.81025 34.8163 4.80957 34.5735V25.3556H2.30816C2.06701 25.3563 1.8281 25.3093 1.60511 25.2173C1.38212 25.1252 1.17944 24.99 1.00868 24.8193C0.837919 24.6486 0.702433 24.4459 0.609991 24.2226C0.517549 23.9994 0.46997 23.76 0.469971 23.5183V19.917C0.469971 19.4284 0.663632 18.9597 1.00836 18.6142C1.35309 18.2686 1.82064 18.0745 2.30816 18.0745H15.2486C15.7362 18.0745 16.2037 18.2686 16.5484 18.6142C16.8932 18.9597 17.0868 19.4284 17.0868 19.917V22.5342C18.3134 21.9108 19.67 21.5879 21.0452 21.592C22.4435 21.5677 23.8257 21.8934 25.0668 22.5396C26.3078 23.1858 27.3684 24.1321 28.1525 25.2928V23.9371C28.1539 23.4493 28.3482 22.982 28.6928 22.6376C29.0374 22.2932 29.5041 22.0998 29.9907 22.0998H33.6828C34.0254 22.0991 34.3616 22.1933 34.6541 22.372C35.4767 22.0109 36.3674 21.8324 37.2652 21.8485C38.2911 21.8109 39.3068 22.0649 40.1948 22.5813C40.3254 22.6651 40.4455 22.7489 40.5708 22.8431C40.8016 22.6803 41.0443 22.5351 41.2967 22.4086C42.1409 22.0197 43.0624 21.8281 43.9913 21.8485C44.7273 21.8187 45.4612 21.9476 46.1432 22.2267C46.8253 22.5057 47.4395 22.9284 47.9445 23.466C48.3249 23.883 48.6274 24.3653 48.8374 24.8897C49.0779 24.545 49.3488 24.2226 49.6469 23.9266C50.2617 23.3171 50.9865 22.8304 51.7827 22.4924C51.8158 22.2596 51.8938 22.0356 52.0125 21.8328L53.5217 19.2156C53.6831 18.9354 53.9153 18.7027 54.1949 18.541C54.4745 18.3793 54.7917 18.2942 55.1145 18.2943H58.2948C58.2781 18.1571 58.2694 18.019 58.2687 17.8808C58.2687 17.211 58.4668 16.5562 58.8381 15.9993C59.2093 15.4424 59.737 15.0083 60.3544 14.7519C60.9718 14.4956 61.6511 14.4285 62.3065 14.5592C62.9619 14.6899 63.564 15.0125 64.0365 15.4861C64.509 15.9597 64.8308 16.5632 64.9612 17.2201C65.0916 17.8771 65.0246 18.558 64.7689 19.1769C64.5132 19.7957 64.0801 20.3246 63.5245 20.6967C62.9689 21.0689 62.3156 21.2675 61.6474 21.2675C61.0586 21.2695 60.48 21.1141 59.9711 20.8173C59.8611 21.0742 59.6951 21.3031 59.4854 21.4874Z" fill="#D4196E"/>
<path d="M55.1197 18.0274C53.968 18.0358 52.8265 17.8106 51.764 17.3654C50.7014 16.9201 49.7397 16.2639 48.9367 15.4364C48.9368 15.8555 48.7939 16.2622 48.5318 16.5887C48.2696 16.9153 47.9039 17.1422 47.4954 17.2318C46.5325 17.4534 45.5484 17.5692 44.5605 17.5772C43.5574 17.6276 42.5575 17.4261 41.6518 16.991C41.0361 16.651 40.5222 16.1522 40.1635 15.5463C40.1539 16.0291 39.9562 16.4889 39.6127 16.8274C39.2691 17.1659 38.807 17.3561 38.3253 17.3574H34.6385C34.3759 17.3576 34.1165 17.3012 33.8777 17.1919C33.6389 17.0826 33.4263 16.923 33.2546 16.724C33.0826 16.9228 32.87 17.0822 32.6313 17.1914C32.3925 17.3007 32.1332 17.3573 31.8707 17.3574H28.2152C27.9107 17.3585 27.6109 17.2829 27.3431 17.1376C27.0768 17.2817 26.7789 17.3572 26.4762 17.3574H23.0296C22.6431 17.3575 22.2664 17.2347 21.9539 17.0067H21.9121C20.9639 17.3757 19.9524 17.5536 18.9355 17.5301C17.5407 17.6014 16.1704 17.1435 15.0972 16.2477C14.7885 15.967 14.5181 15.6466 14.293 15.295C13.6944 15.946 12.9669 16.4648 12.1571 16.8182C10.9123 17.3295 9.57492 17.5755 8.23008 17.5406C5.44146 17.5406 3.48315 16.9282 2.25073 15.6667C1.0701 14.4583 0.363704 12.8637 0.261091 11.1755C0.241158 10.9315 0.269813 10.6859 0.345389 10.4531C0.420964 10.2203 0.541954 10.0048 0.701327 9.81923C0.8607 9.63367 1.05528 9.48171 1.27375 9.37218C1.49222 9.26265 1.73023 9.19773 1.97395 9.18121H2.00528C1.17548 8.22437 0.727326 6.99415 0.746755 5.72649C0.748285 4.6757 1.05494 3.64808 1.6293 2.76903C2.25813 1.81908 3.15415 1.07762 4.20381 0.638613C5.475 0.133288 6.83749 -0.10027 8.20397 -0.0470968C10.2928 -0.0470968 11.9221 0.376895 13.1389 1.25628C13.7728 1.73216 14.3032 2.33278 14.6974 3.02134C15.0916 3.7099 15.3414 4.47189 15.4314 5.26062C15.7454 4.96202 16.0964 4.70517 16.4758 4.49639C17.0884 4.16885 17.7526 3.9493 18.4394 3.84732C19.1761 3.72289 19.9221 3.6616 20.6692 3.66412C21.6695 3.64706 22.6692 3.72064 23.6563 3.88396C24.605 4.04507 25.4896 4.4694 26.2099 5.10883C26.2815 5.16745 26.3496 5.23038 26.4136 5.29727C26.5099 4.89543 26.7386 4.53787 27.0626 4.28237C27.3867 4.02688 27.7872 3.88836 28.1995 3.8892H31.6201C31.961 3.88863 32.2954 3.98285 32.5861 4.16139C33.3713 3.8101 34.2225 3.63161 35.0823 3.63794C36.2677 3.60209 37.4276 3.98777 38.3566 4.72671C38.6015 4.33323 38.9858 4.04713 39.4324 3.92584C39.4324 3.58922 39.5243 3.25903 39.6983 2.97111C39.8723 2.6832 40.1217 2.44857 40.4194 2.2927L44.101 0.376891C44.3806 0.231065 44.693 0.159987 45.0081 0.17052C45.3231 0.181053 45.6301 0.272846 45.8994 0.437026C46.1687 0.601206 46.3913 0.832229 46.5455 1.10778C46.6997 1.38332 46.7805 1.69408 46.7799 2.01003V3.87873H46.9523C47.3688 3.87903 47.7728 4.02109 48.0983 4.28166C48.4237 4.54223 48.6512 4.90586 48.7434 5.31297C49.5489 4.42654 50.5316 3.72001 51.6274 3.23933C52.7233 2.75865 53.9078 2.51459 55.104 2.52301C59.6629 2.52301 63.3759 5.98821 63.3759 10.249C63.3759 14.5099 59.6786 18.0274 55.1197 18.0274Z" fill="#D4196E"/>
<path fill-rule="evenodd" clip-rule="evenodd" d="M55.1197 4.4231C51.5634 4.4231 48.6808 7.04032 48.6808 10.3066C48.6808 13.5729 51.5634 16.1901 55.1197 16.1901C58.676 16.1901 61.5534 13.5729 61.5534 10.3066C61.5534 7.04032 58.6708 4.4231 55.1197 4.4231ZM55.1197 14.7611C52.4251 14.7611 50.2422 12.7668 50.2422 10.3066C50.2422 7.84643 52.4251 5.84686 55.1197 5.84686C57.8144 5.84686 59.992 7.84643 59.992 10.3066C59.992 12.7668 57.8091 14.7611 55.1197 14.7611Z" fill="white"/>
<path fill-rule="evenodd" clip-rule="evenodd" d="M2.07317 11.0656L5.95845 10.8196C6.00138 11.3472 6.18143 11.8543 6.48066 12.2905C6.69392 12.5607 6.96898 12.7756 7.28257 12.9168C7.59617 13.058 7.93907 13.1215 8.2823 13.1018C8.76782 13.1358 9.24847 12.9864 9.62961 12.683C9.77389 12.5705 9.89063 12.4264 9.97093 12.2617C10.0512 12.0971 10.093 11.9162 10.093 11.733C10.093 11.5497 10.0512 11.3689 9.97093 11.2042C9.89063 11.0396 9.77389 10.8955 9.62961 10.7829C8.99927 10.3717 8.28592 10.1053 7.54075 10.003C5.74956 9.58949 4.47014 9.05034 3.7077 8.36986C3.33245 8.04779 3.03398 7.64549 2.83426 7.19257C2.63454 6.73965 2.53864 6.24761 2.55361 5.75265C2.55563 5.05637 2.76075 4.37588 3.14371 3.79496C3.5775 3.14447 4.196 2.63939 4.91924 2.34502C5.95734 1.95222 7.06404 1.77416 8.17264 1.82158C9.85765 1.82158 11.1458 2.14088 12.037 2.77948C12.4999 3.147 12.8791 3.60938 13.1493 4.13566C13.4194 4.66195 13.5744 5.24001 13.6037 5.83116L9.75495 6.06148C9.70283 5.55697 9.47329 5.08752 9.1074 4.73716C8.71613 4.4466 8.23587 4.30218 7.74964 4.32888C7.36817 4.29967 6.98876 4.40727 6.6791 4.63248C6.56624 4.72159 6.47512 4.83532 6.41268 4.96502C6.35024 5.09472 6.31813 5.23699 6.31878 5.381C6.32189 5.4927 6.34975 5.60231 6.40032 5.7019C6.4509 5.80148 6.52294 5.88854 6.61121 5.95679C7.02527 6.22522 7.49503 6.3953 7.98464 6.45406C9.30602 6.69833 10.5942 7.09713 11.8229 7.64228C12.5139 7.97075 13.0985 8.48779 13.5097 9.13409C13.862 9.73865 14.0426 10.4283 14.0319 11.1284C14.0359 11.9746 13.7907 12.8031 13.3269 13.5101C12.8517 14.2475 12.1655 14.824 11.3581 15.1642C10.3487 15.572 9.26562 15.7645 8.17786 15.7295C5.93234 15.7295 4.37091 15.2898 3.50926 14.4104C2.62982 13.5051 2.10676 12.3115 2.03662 11.0499L2.07317 11.0656Z" fill="white"/>
<path fill-rule="evenodd" clip-rule="evenodd" d="M26.0637 14.5203C25.997 14.1649 25.9673 13.8036 25.9749 13.442V9.13934C25.9686 8.64611 25.8786 8.15755 25.7086 7.69463C25.5644 7.2487 25.3092 6.84697 24.9671 6.52735C24.4932 6.11572 23.9148 5.84392 23.296 5.74219C22.4208 5.60052 21.5347 5.53745 20.6484 5.55375C20.0079 5.54964 19.3683 5.60219 18.7371 5.71078C18.2521 5.77562 17.7821 5.9244 17.348 6.15047C16.9216 6.37242 16.5531 6.69155 16.2722 7.0822C15.9844 7.52902 15.7891 8.0292 15.6978 8.55309L19.2018 8.92997C19.2935 8.58798 19.4932 8.28494 19.771 8.06627C20.1861 7.84487 20.6543 7.7434 21.1236 7.77315C21.4757 7.73771 21.8282 7.83678 22.1106 8.05057C22.3236 8.32364 22.4228 8.66887 22.3873 9.01372C21.933 9.19169 21.4996 9.34348 21.0922 9.45863C20.6849 9.57379 19.7867 9.76747 18.4081 10.0501C17.5326 10.1478 16.7085 10.5133 16.0477 11.097C15.6102 11.602 15.3823 12.2557 15.4106 12.9238C15.4035 13.2999 15.4788 13.673 15.6313 14.0167C15.7838 14.3603 16.0097 14.6663 16.2931 14.9129C17.0318 15.5003 17.9638 15.788 18.9042 15.719C19.6769 15.7343 20.4452 15.5973 21.1653 15.316C21.7041 15.0744 22.1917 14.7315 22.6014 14.3057C22.628 14.5161 22.6699 14.7243 22.7268 14.9286C22.8017 15.1259 22.8925 15.3167 22.9983 15.4992H26.4449C26.2827 15.1878 26.1548 14.8596 26.0637 14.5203ZM22.4082 11.4896C22.4227 11.8801 22.3477 12.2686 22.1889 12.6255C22.0165 12.9388 21.7571 13.1952 21.4421 13.3635C21.0935 13.5615 20.6991 13.6643 20.2985 13.6619C19.9784 13.6838 19.6617 13.5848 19.4107 13.3845C19.3144 13.2943 19.2376 13.1854 19.1851 13.0642C19.1326 12.9431 19.1055 12.8125 19.1055 12.6804C19.1055 12.5484 19.1326 12.4177 19.1851 12.2966C19.2376 12.1755 19.3144 12.0665 19.4107 11.9764C19.834 11.6776 20.3168 11.4741 20.8259 11.3797C21.3481 11.2383 21.8703 11.0761 22.3926 10.8929L22.4082 11.4896Z" fill="white"/>
<path fill-rule="evenodd" clip-rule="evenodd" d="M28.1996 5.78405H31.6201V7.35438C32.0385 6.78605 32.5724 6.31325 33.1867 5.96726C33.7799 5.67269 34.4363 5.52888 35.098 5.5485C35.5381 5.52521 35.9781 5.59521 36.3893 5.75396C36.8006 5.9127 37.1738 6.15661 37.4845 6.46976C38.0538 7.08219 38.341 8.04009 38.341 9.31729V15.5096H34.6542V10.16C34.6991 9.70134 34.5807 9.24151 34.3199 8.8619C34.2017 8.73187 34.0559 8.63005 33.8932 8.56393C33.7305 8.49781 33.5552 8.46905 33.38 8.47978C33.1715 8.47651 32.9652 8.52215 32.7775 8.61303C32.5899 8.70392 32.426 8.83754 32.299 9.00322C31.9681 9.55917 31.8235 10.2067 31.8864 10.851V15.5253H28.2309V5.78405H28.1996Z" fill="white"/>
<path fill-rule="evenodd" clip-rule="evenodd" d="M44.947 2.0676V5.78405H46.9523V8.51119H44.9313V11.9659C44.9106 12.2466 44.9498 12.5286 45.0462 12.793C45.1114 12.8996 45.2052 12.9856 45.317 13.0412C45.4288 13.0967 45.5539 13.1195 45.6781 13.107C46.0671 13.082 46.4505 13.0009 46.8165 12.8662L47.0881 15.4468C46.2534 15.6373 45.4008 15.7373 44.5449 15.7452C43.8526 15.788 43.1601 15.666 42.5239 15.3892C42.0878 15.1484 41.7483 14.7637 41.563 14.3005C41.3148 13.5396 41.2103 12.739 41.2549 11.9398V8.51119H39.8972V5.78405H41.2549V3.99387L44.9104 2.07807L44.947 2.0676Z" fill="white"/>
<path fill-rule="evenodd" clip-rule="evenodd" d="M53.9395 13.5834L54.1171 12.8872C53.8244 12.7949 53.5383 12.683 53.2606 12.5522C53.0349 12.4453 52.8228 12.3117 52.6288 12.1544L53.0465 10.6155C53.265 10.8562 53.5123 11.0689 53.7828 11.2488C54.0222 11.4119 54.2869 11.5339 54.5662 11.61C54.7457 11.6589 54.935 11.6589 55.1145 11.61C55.1813 11.5954 55.2428 11.5628 55.2925 11.5158C55.3422 11.4687 55.3781 11.409 55.3965 11.343C55.4592 11.1022 55.1928 10.8562 54.5975 10.6155C54.3782 10.5212 54.2111 10.4532 54.1118 10.4008C53.7635 10.2479 53.4714 9.98993 53.2763 9.66278C53.1142 9.36131 53.0749 9.00861 53.1666 8.67871C53.2196 8.4537 53.3215 8.2432 53.465 8.06223C53.6086 7.88126 53.7902 7.7343 53.997 7.63182C54.4643 7.39992 54.9963 7.33349 55.5062 7.44338L55.668 6.80478L56.4723 7.00892L56.3051 7.65799C56.5808 7.76908 56.8393 7.91888 57.0728 8.10292C57.2788 8.27935 57.4552 8.48791 57.595 8.72058L56.5506 9.62614C56.4608 9.39931 56.3217 9.19544 56.1433 9.02942C55.9867 8.87265 55.7925 8.75905 55.5793 8.69965C55.4089 8.64874 55.2274 8.64874 55.057 8.69965C54.9943 8.71612 54.937 8.74904 54.8911 8.79503C54.8452 8.84103 54.8124 8.89844 54.7959 8.96137C54.7385 9.18122 54.9474 9.36966 55.4226 9.53716C55.5918 9.59552 55.7574 9.66367 55.9187 9.7413C56.3426 9.91467 56.7059 10.2097 56.9631 10.5893C57.0643 10.7534 57.13 10.9369 57.156 11.1281C57.1821 11.3192 57.168 11.5137 57.1146 11.699C57.0624 11.911 56.9673 12.1101 56.8353 12.2839C56.7032 12.4577 56.537 12.6024 56.3469 12.7092C55.9078 12.9531 55.4056 13.0589 54.9056 13.0128L54.7072 13.7718L53.9395 13.5834Z" fill="white"/>
<path fill-rule="evenodd" clip-rule="evenodd" d="M1.92173 37.9026H61.7048C62.2442 37.9363 62.7487 38.1815 63.1092 38.585C63.4698 38.9885 63.6575 39.5181 63.6318 40.0592V44.8434C63.6589 45.3849 63.4717 45.9152 63.1108 46.319C62.75 46.7228 62.2447 46.9676 61.7048 47H1.92173C1.38277 46.9663 0.878791 46.7209 0.519057 46.3173C0.159323 45.9136 -0.0271831 45.384 -2.50777e-05 44.8434V40.0592C-0.0258127 39.5189 0.161167 38.9901 0.520627 38.5867C0.880088 38.1833 1.38326 37.9376 1.92173 37.9026Z" fill="#D4196E"/>
<path fill-rule="evenodd" clip-rule="evenodd" d="M7.17523 43.1789H6.26657C6.2339 43.427 6.10717 43.6529 5.91269 43.8098C5.71822 43.9668 5.47093 44.0426 5.22215 44.0216C4.44927 44.0216 4.00539 43.472 4.00539 42.4513C4.00539 41.4306 4.43882 40.881 5.25348 40.881C5.37088 40.8664 5.49 40.8753 5.60392 40.9073C5.71784 40.9392 5.82429 40.9936 5.91709 41.0671C6.00989 41.1406 6.08719 41.2319 6.14449 41.3356C6.2018 41.4394 6.23797 41.5535 6.25091 41.6714H7.16478C7.10212 40.6245 6.41279 40.0435 5.25348 40.0435C3.83306 40.0435 3.06018 40.8914 3.06018 42.4408C3.06018 43.9902 3.8435 44.833 5.14904 44.833C6.31357 44.833 7.08123 44.1734 7.14912 43.1475L7.17523 43.1789ZM11.5514 44.7492H12.4861V42.9486H13.4731C13.9954 42.9486 14.1259 43.1318 14.1416 43.6709V44.1525C14.1347 44.3463 14.1703 44.5393 14.246 44.7178H15.2591V44.5817C15.092 44.4927 15.092 44.3357 15.0868 44.0583V43.5348C15.0868 43.0114 14.9562 42.6973 14.528 42.5455C14.7429 42.4649 14.9252 42.3156 15.047 42.1207C15.1688 41.9258 15.2231 41.6962 15.2017 41.4672C15.2017 40.5931 14.7317 40.1795 13.7499 40.1795H11.567V44.723L11.5514 44.7492ZM12.4757 42.1896V40.9909H13.6089C14.0423 40.9909 14.2565 41.2003 14.2565 41.5928C14.2565 41.9854 14.0371 42.1896 13.5671 42.1896H12.4757ZM27.3849 44.7492H28.9046C29.2154 44.8023 29.5343 44.7808 29.8353 44.6865C30.1362 44.5921 30.4105 44.4276 30.6358 44.2065C30.861 43.9853 31.0307 43.7137 31.131 43.4141C31.2313 43.1145 31.2593 42.7953 31.2127 42.4827C31.2127 40.9438 30.5339 40.2057 29.1552 40.2057H27.3849V44.7492ZM28.2936 43.9274V41.0014H29.1552C29.9177 41.0014 30.2623 41.4724 30.2623 42.4827C30.2623 43.4929 29.902 43.9274 29.0403 43.9274H28.2936ZM35.6046 44.7492H36.5341V40.2057H35.6046V44.7492ZM42.0644 44.7492H42.9939V41.0171H44.3412V40.2057H40.7379V41.0171H42.0696V44.7492H42.0644ZM48.2944 42.4827C48.2944 43.9483 49.1456 44.8748 50.4929 44.8748C51.8402 44.8748 52.7019 43.9483 52.7019 42.4827C52.7019 41.017 51.8454 40.0853 50.4929 40.0853C49.1404 40.0853 48.2944 41.017 48.2944 42.4827ZM49.2396 42.4827C49.2396 41.4724 49.7096 40.9124 50.4929 40.9124C51.2762 40.9124 51.7619 41.4829 51.7619 42.4827C51.7619 43.4825 51.2866 44.053 50.4929 44.053C49.6991 44.053 49.2396 43.4825 49.2396 42.4827ZM56.8639 43.3464C56.9109 44.3148 57.5689 44.8748 58.7178 44.8748C59.8666 44.8748 60.5298 44.32 60.5298 43.383C60.5434 43.1785 60.4985 42.9744 60.4005 42.7946C60.3024 42.6147 60.1553 42.4666 59.9763 42.3675C59.6438 42.207 59.2931 42.0875 58.9319 42.0116C58.1903 41.8232 57.8456 41.8232 57.8456 41.3939C57.8456 41.0485 58.112 40.8443 58.6029 40.8443C59.0938 40.8443 59.4697 41.0799 59.4958 41.5196H60.3888C60.3575 40.6088 59.7413 40.0801 58.6812 40.0801C57.6211 40.0801 56.9475 40.5721 56.9475 41.4515C56.9282 41.6541 56.9636 41.8581 57.05 42.0423C57.1363 42.2264 57.2705 42.384 57.4383 42.4984C57.7473 42.6666 58.083 42.7799 58.4305 42.8334C59.2609 43.0218 59.6369 43.1056 59.6369 43.5191C59.6369 43.9326 59.3653 44.0949 58.8222 44.0949C58.2791 44.0949 57.8613 43.8698 57.7778 43.3621L56.8639 43.3464ZM19.6562 44.7492H23.0401V43.9117H20.57V42.7392H22.7268V41.954H20.57V40.9856H22.9304V40.1952H19.6614L19.6562 44.7492Z" fill="white" stroke="white" stroke-width="0.22" stroke-miterlimit="22.93"/>
<path fill-rule="evenodd" clip-rule="evenodd" d="M2.30817 19.917V23.5445H6.64777V34.5734H10.9195V23.5183H15.2643V19.917H2.30817ZM29.9855 23.9632H33.6776V25.5336C34.1166 24.9668 34.6655 24.495 35.2912 24.1464C35.903 23.8582 36.5738 23.7184 37.2495 23.7382C37.9297 23.7029 38.6061 23.8588 39.2026 24.1883C39.7109 24.5191 40.1177 24.9848 40.3776 25.5336C40.8511 24.9557 41.4308 24.4742 42.0852 24.115C42.6782 23.8458 43.325 23.7168 43.9756 23.7382C44.4583 23.707 44.942 23.7816 45.393 23.957C45.8439 24.1324 46.2513 24.4043 46.5867 24.7536C47.2134 25.4341 47.5215 26.4915 47.5215 27.9362V34.5734H43.5579V28.512C43.5853 28.1336 43.4881 27.7566 43.2811 27.4389C43.174 27.2722 43.0272 27.1347 42.8541 27.0388C42.6809 26.9428 42.4867 26.8915 42.2889 26.8893C42.0733 26.8836 41.8594 26.9278 41.6637 27.0186C41.4681 27.1094 41.296 27.2443 41.1609 27.4127C40.8371 27.908 40.6881 28.4977 40.7379 29.0877V34.5734H36.7691V28.7109C36.7834 28.393 36.7571 28.0746 36.6908 27.7634C36.6138 27.5074 36.4608 27.2809 36.2521 27.1144C36.0453 26.9515 35.7891 26.8647 35.5262 26.8684C35.3114 26.8622 35.098 26.9063 34.9032 26.9972C34.7083 27.088 34.5372 27.2231 34.4035 27.3918C34.0664 27.9071 33.9119 28.521 33.9648 29.1349V34.5734H30.0012V23.9371L29.9855 23.9632ZM61.3184 30.2917H53.3911C53.4159 30.8198 53.5978 31.3284 53.9134 31.7521C54.093 31.9754 54.3218 32.154 54.5818 32.2739C54.8419 32.3937 55.1261 32.4516 55.4121 32.443C55.8009 32.4427 56.1827 32.3398 56.5192 32.1447C56.7894 31.9673 57.0234 31.7399 57.2085 31.4746L61.1095 31.8411C60.624 32.7989 59.8757 33.598 58.9527 34.1442C57.8167 34.666 56.5711 34.9031 55.3233 34.8352C54.2168 34.8845 53.1135 34.6823 52.0961 34.2437C51.2782 33.8133 50.6018 33.1553 50.1482 32.3488C49.6155 31.4222 49.3481 30.3662 49.3753 29.2971C49.3466 28.5535 49.4708 27.8119 49.7404 27.1185C50.0099 26.4251 50.4189 25.7947 50.942 25.2666C51.9864 24.2197 53.4138 23.705 55.2241 23.7225C56.4291 23.6647 57.6299 23.9018 58.723 24.4134C59.5653 24.8605 60.2479 25.5594 60.676 26.413C61.1661 27.4832 61.3969 28.6544 61.3497 29.831V30.2917H61.3184ZM57.2973 28.3392C57.2836 27.722 57.0649 27.1271 56.6759 26.6485C56.5052 26.4739 56.2999 26.3371 56.0733 26.2469C55.8466 26.1568 55.6036 26.1152 55.3599 26.1251C55.0643 26.1172 54.7715 26.1835 54.5079 26.3178C54.2443 26.4522 54.0184 26.6504 53.8507 26.8945C53.5751 27.3238 53.4183 27.8188 53.3964 28.3288L57.2973 28.3392ZM55.0831 20.1578H58.2164L55.4435 22.775H53.5478L55.0831 20.1578ZM20.946 23.3979C17.3897 23.3979 14.5071 26.0151 14.5071 29.2814C14.5071 32.5477 17.3897 35.1649 20.946 35.1649C24.5023 35.1649 27.3797 32.5477 27.3797 29.2814C27.3797 26.0151 24.497 23.3718 20.9512 23.3718L20.946 23.3979ZM20.946 33.7359C18.2462 33.7359 16.0633 31.7416 16.0633 29.2814C16.0633 26.8212 18.2462 24.8217 20.946 24.8217C23.6458 24.8217 25.813 26.8212 25.813 29.2814C25.813 31.7416 23.6354 33.7098 20.9512 33.7098L20.946 33.7359ZM19.7971 32.5268L19.9747 31.8306C19.6801 31.7439 19.3936 31.6318 19.1182 31.4956C18.8918 31.3891 18.6781 31.2575 18.4811 31.103L18.9041 29.5641C19.1226 29.8048 19.3699 30.0175 19.6405 30.1975C19.8776 30.3598 20.1408 30.4802 20.4186 30.5534C20.5995 30.6052 20.7912 30.6052 20.9721 30.5534C21.0382 30.5385 21.0989 30.5057 21.1477 30.4586C21.1965 30.4116 21.2315 30.352 21.2489 30.2864C21.3115 30.0404 21.0504 29.7996 20.4551 29.5536C20.2306 29.4646 20.0687 29.3913 19.9642 29.339C19.617 29.1843 19.3254 28.9268 19.1287 28.6009C19.0478 28.4527 18.9969 28.29 18.979 28.122C18.9611 27.954 18.9765 27.7841 19.0242 27.6221C19.0767 27.3976 19.1778 27.1874 19.3204 27.0065C19.463 26.8255 19.6436 26.6783 19.8493 26.5752C20.316 26.3409 20.8488 26.2743 21.3585 26.3868L21.5256 25.743L22.3246 25.9471L22.1575 26.6014C22.4348 26.709 22.6938 26.8591 22.9252 27.0463C23.1325 27.2194 23.3091 27.4265 23.4474 27.6588L22.403 28.5695C22.3095 28.3432 22.1709 28.1384 21.9956 27.9676C21.8384 27.8101 21.6418 27.698 21.4264 27.6431C21.2562 27.5912 21.0744 27.5912 20.9042 27.6431C20.8411 27.6583 20.7832 27.69 20.7364 27.7351C20.6895 27.7802 20.6556 27.8369 20.6379 27.8995C20.5857 28.1194 20.7945 28.313 21.2645 28.4805C21.4839 28.5591 21.6458 28.6271 21.7607 28.6795C22.181 28.8587 22.5428 29.1525 22.8051 29.5274C22.905 29.6921 22.97 29.8756 22.9961 30.0665C23.0221 30.2574 23.0087 30.4517 22.9565 30.6371C22.9029 30.8486 22.8073 31.0471 22.6754 31.2207C22.5435 31.3943 22.378 31.5394 22.1889 31.6474C21.7495 31.8958 21.2442 32.0018 20.7423 31.951L20.5491 32.7152L19.7971 32.5268Z" fill="white"/>
<path fill-rule="evenodd" clip-rule="evenodd" d="M61.6161 15.6771C61.24 15.6707 60.8689 15.7642 60.5405 15.948C60.2122 16.1319 59.9382 16.3996 59.7465 16.724C59.5377 17.0697 59.4275 17.4662 59.428 17.8704C59.4307 18.4517 59.6619 19.0085 60.0716 19.42C60.4812 19.8316 61.0361 20.0647 61.6161 20.0688C62.2026 20.0702 62.7659 19.8387 63.1827 19.425C63.3929 19.2222 63.5589 18.9779 63.6703 18.7077C63.7818 18.4375 63.8362 18.147 63.8303 17.8547C63.8316 17.5646 63.7757 17.2772 63.6658 17.0089C63.5559 16.7406 63.3941 16.4968 63.1897 16.2915C62.9854 16.0862 62.7425 15.9234 62.4751 15.8126C62.2077 15.7017 61.9211 15.645 61.6317 15.6457L61.6161 15.6771ZM61.6161 16.0435C61.8585 16.0376 62.0996 16.0809 62.3249 16.1709C62.5501 16.2608 62.7549 16.3956 62.9268 16.567C63.0981 16.7413 63.2327 16.9484 63.3224 17.1759C63.4121 17.4034 63.4552 17.6467 63.449 17.8913C63.4509 18.1259 63.4056 18.3585 63.3159 18.5753C63.2262 18.792 63.0939 18.9884 62.9268 19.1528C62.5754 19.4864 62.1105 19.6736 61.6265 19.6762C61.3835 19.6742 61.1433 19.6237 60.9201 19.5275C60.6968 19.4313 60.4949 19.2915 60.3262 19.1162C60.1587 18.9477 60.0264 18.7476 59.9367 18.5274C59.8471 18.3073 59.8019 18.0715 59.804 17.8337C59.8056 17.5878 59.8559 17.3446 59.9518 17.1182C60.0477 16.8918 60.1874 16.6867 60.3627 16.5146C60.5286 16.3453 60.7271 16.2115 60.9461 16.1215C61.1652 16.0315 61.4002 15.9872 61.6369 15.9912L61.6161 16.0435ZM60.7022 16.6193H61.6578C62.3524 16.6193 62.7023 16.8549 62.7023 17.3208C62.7041 17.4729 62.653 17.621 62.5577 17.7395C62.4624 17.8579 62.3288 17.9394 62.1801 17.9698L62.7023 19.0586H62.0443L61.5795 18.0588H61.2923V19.0586H60.697V16.6193H60.7022ZM61.2975 16.9962H61.5743C61.9346 16.9962 62.0965 17.1009 62.0965 17.3574C62.0965 17.6139 61.9346 17.7029 61.5743 17.7029H61.2871L61.2975 16.9962Z" fill="white"/>
</g>
<defs>
<clipPath id="clip0_190:320">
<rect width="65" height="47" fill="white"/>
</clipPath>
</defs>
</svg>
